<?xml version="1.0" encoding="UTF-8"?>
<svg width="24px" height="24px" viewBox="0 0 24 24" version="1.1" xmlns="http://www.w3.org/2000/svg" xmlns:xlink="http://www.w3.org/1999/xlink">
    <title>Shape</title>
    <g id="Page-1" stroke="none" stroke-width="1" fill="none" fill-rule="evenodd">
        <path d="M24,12 C24,5.37238095 18.6275,0 12,0 C5.3725,0 0,5.3725 0,12 C0,18.6275 5.3725,24 12,24 C18.6275,24 24,18.6275 24,12 Z M1.33333333,12 C1.33333333,6.10904762 6.10916667,1.33309524 12.0002381,1.33309524 C17.8913095,1.33309524 22.6671429,6.10892857 22.6671429,12 C22.6671429,17.8910714 17.8913095,22.6669048 12.0002381,22.6669048 C6.10916667,22.6669048 1.33333333,17.8910714 1.33333333,12 Z M12.9428571,12 L16.4715476,15.5286905 C16.7319643,15.7891071 16.7319643,16.2108929 16.4715476,16.4713095 C16.211131,16.7317262 15.7893452,16.7317262 15.5289286,16.4713095 L12.0002381,12.942619 L8.47154762,16.4713095 C8.21113095,16.7317262 7.78934524,16.7317262 7.52892857,16.4713095 C7.2685119,16.2108929 7.2685119,15.7891071 7.52892857,15.5286905 L11.057619,12 L7.52892857,8.47130952 C7.2685119,8.21089286 7.2685119,7.78910714 7.52892857,7.52869048 C7.78934524,7.26827381 8.21113095,7.26827381 8.47154762,7.52869048 L12.0002381,11.057381 L15.5289286,7.52869048 C15.7893452,7.26827381 16.211131,7.26827381 16.4715476,7.52869048 C16.7319643,7.78910714 16.7319643,8.21089286 16.4715476,8.47130952 L12.9428571,12 Z" id="Shape" fill="#FFFFFF" fill-rule="nonzero"></path>
    </g>
</svg>